<svg width="75" height="43" viewBox="0 0 75 43" fill="none" xmlns="http://www.w3.org/2000/svg">
<path d="M0 11.1686H3.77814V25.2704H0V11.1686ZM0 28.0444H3.77814V31.0501H0V28.0444Z" fill="white"/>
<path d="M8.14697 6.23975C8.14697 2.70221 10.4135 0.344971 13.815 0.344971H19.5936V4.27427H13.815C12.6817 4.27427 11.9251 5.06113 11.9251 6.23975C11.9251 7.41837 12.6801 8.20523 13.815 8.20523H19.5936V20.2265H8.59099V16.2972H14.259C15.4596 16.2972 16.2595 15.4653 16.2595 14.2167C16.2595 12.9681 15.4596 12.1362 14.259 12.1362H13.815C10.4135 12.1362 8.14697 9.77895 8.14697 6.24142V6.23975Z" fill="white"/>
<path d="M35.3762 6.70331V13.8701C35.3762 17.8927 32.7971 20.5734 28.9308 20.5734C25.0645 20.5734 22.4854 17.8927 22.4854 13.8701V6.70331C22.4854 2.68066 25.0629 0 28.9308 0C32.7987 0 35.3762 2.68066 35.3762 6.70331ZM31.5965 6.70331C31.5965 5.03957 30.5289 3.9293 28.9292 3.9293C27.3294 3.9293 26.2619 5.03957 26.2619 6.70331V13.8701C26.2619 15.5338 27.3294 16.6441 28.9292 16.6441C30.5289 16.6441 31.5965 15.5338 31.5965 13.8701V6.70331Z" fill="white"/>
<path d="M51.2678 0.344971V13.8683C51.2678 17.8909 48.6903 20.5716 44.8224 20.5716C40.9545 20.5716 38.377 17.8909 38.377 13.8683V0.344971H42.1551V13.8683C42.1551 15.532 43.2227 16.6423 44.8224 16.6423C46.4221 16.6423 47.4897 15.532 47.4897 13.8683V0.344971H51.2678Z" fill="white"/>
<path d="M58.4905 13.985C58.4905 15.372 59.3802 16.2972 60.7138 16.2972H66.4411V20.2265H54.7124V0.344971H58.4905V13.9833V13.985Z" fill="white"/>
<path d="M16.8908 35.5137H20.669C20.669 39.5364 18.0898 42.2171 14.2235 42.2171C10.3572 42.2171 7.77808 39.5364 7.77808 35.5137V28.347C7.77808 24.3243 10.3556 21.6437 14.2235 21.6437C18.0914 21.6437 20.669 24.3243 20.669 28.347H16.8908C16.8908 26.6832 15.8233 25.573 14.2235 25.573C12.6238 25.573 11.5562 26.6832 11.5562 28.347V35.5137C11.5562 37.1775 12.6238 38.2878 14.2235 38.2878C15.8233 38.2878 16.8908 37.1775 16.8908 35.5137Z" fill="white"/>
<path d="M35.2527 28.3486V35.5153C35.2527 39.538 32.6736 42.2186 28.8073 42.2186C24.941 42.2186 22.3618 39.538 22.3618 35.5153V28.3486C22.3618 24.3259 24.9394 21.6453 28.8073 21.6453C32.6752 21.6453 35.2527 24.3259 35.2527 28.3486ZM31.4746 28.3486C31.4746 26.6848 30.407 25.5746 28.8073 25.5746C27.2075 25.5746 26.14 26.6848 26.14 28.3486V35.5153C26.14 37.1791 27.2075 38.2893 28.8073 38.2893C30.407 38.2893 31.4746 37.1791 31.4746 35.5153V28.3486Z" fill="white"/>
<path d="M52.7728 30.5443V33.3183C52.7728 38.4496 49.4835 41.8721 44.5481 41.8721H38.5466V21.9922H44.5481C49.4819 21.9922 52.7728 25.413 52.7728 30.546V30.5443ZM48.9946 30.5443C48.9946 27.7703 47.217 25.9215 44.5497 25.9215C43.216 25.9215 42.3264 26.8467 42.3264 28.2337V35.6305C42.3264 37.0175 43.216 37.9428 44.5497 37.9428C47.217 37.9428 48.9946 36.094 48.9946 33.32V30.546V30.5443Z" fill="white"/>
<path d="M58.0448 27.8852C58.0448 29.0638 58.7998 29.8507 59.9347 29.8507H66.4394V33.78H59.9347C59.0675 33.78 58.4904 34.3818 58.4904 35.282V36.4373C58.4904 37.3392 59.0691 37.9393 59.9347 37.9393H66.4394V41.8686H54.7107V21.9888H66.4394V25.9181H59.9347C58.8014 25.9181 58.0448 26.7033 58.0448 27.8835V27.8852Z" fill="white"/>
<path d="M70.4412 11.1686H74.2193V25.2704H70.4412V11.1686ZM70.4412 28.0444H74.2193V31.0501H70.4412V28.0444Z" fill="white"/>
</svg>
